VIDEO
 Format : AVC
 Format/Info : Advanced Video Codec
 Format profile : Main@L3.0
 Format settings, CABAC : Yes
 Format settings, GOP : M=1, N=24
 Codec ID : 7
 Duration : 2h 36mn
 Bit rate : 791 Kbps
 Width : 854 pixels
 Height : 362 pixels
 Display aspect ratio : 2.35:1
 Frame rate : 24.000 fps
 Bit depth : 8 bits
 Stream size : 886 MiB (85%)
 
AUDIO
 Format : AAC
 Format/Info : Advanced Audio Codec
 Format profile : LC
 Codec ID : 10
 Duration : 2h 36mn
 Bit rate : 129 Kbps
 Channel(s) : 2 channels
 Sampling rate : 44.1 KHz
 Compression mode : Lossy
 Stream size : 144 MiB (14%)

Screens -
[url=http://postimage.org/image/x5saazsqb/][img]http://s5.postimage.org/x5saazsqb/vlcsnap_2012_10_07_21h18m20s87.jpg[/img][/url]
[url=http://postimage.org/image/nmilhj583/][img]http://s5.postimage.org/nmilhj583/vlcsnap_2012_10_07_21h19m41s127.jpg[/img][/url]
[url=http://postimage.org/image/6ai8w3bqr/][img]http://s5.postimage.org/6ai8w3bqr/vlcsnap_2012_10_07_21h19m52s24.jpg[/img][/url]
[url=http://postimage.org/image/cdztg020j/][img]http://s5.postimage.org/cdztg020j/vlcsnap_2012_10_07_21h20m37s223.jpg[/img][/url]
[url=http://postimage.org/image/jim82rynn/][img]http://s5.postimage.org/jim82rynn/vlcsnap_2012_10_07_21h20m44s29.jpg[/img][/url]
 